<svg width="20" height="20" viewBox="0 0 20 20" fill="none" xmlns="http://www.w3.org/2000/svg">
<path d="M14 0C14.5523 0 15 0.447715 15 1C17.7614 1 20 3.23858 20 6V15C20 17.7614 17.7614 20 15 20H5C2.23858 20 0 17.7614 0 15V6C0 3.23858 2.23858 1 5 1C5 0.447715 5.44772 0 6 0C6.55228 0 7 0.447715 7 1H13C13 0.447715 13.4477 0 14 0ZM7 4C7 4.55228 6.55228 5 6 5C5.44772 5 5 4.55228 5 4V3C3.34315 3 2 4.34315 2 6V15C2 16.6569 3.34315 18 5 18H15C16.6569 18 18 16.6569 18 15V6C18 4.34315 16.6569 3 15 3V4C15 4.55228 14.5523 5 14 5C13.4477 5 13 4.55228 13 4V3H7V4ZM15 14C15.5523 14 16 14.4477 16 15C16 15.5523 15.5523 16 15 16H14C13.4477 16 13 15.5523 13 15C13 14.4477 13.4477 14 14 14H15ZM15 7C15.5523 7 16 7.44772 16 8C16 8.55229 15.5523 9 15 9H5C4.44772 9 4 8.55229 4 8C4 7.44772 4.44772 7 5 7H15Z" fill="#17325E"/>
</svg>
