<svg width="20" height="20" viewBox="0 0 20 20" fill="none" xmlns="http://www.w3.org/2000/svg">
<path d="M16 1.66699C18.2091 1.66699 20 3.45785 20 5.66699V13.667C19.9998 15.876 18.209 17.667 16 17.667H4C1.79097 17.667 0.000175163 15.876 0 13.667V5.66699C0 3.45785 1.79086 1.66699 4 1.66699H16ZM2 13.667C2.00018 14.7714 2.89554 15.667 4 15.667H16C17.1045 15.667 17.9998 14.7714 18 13.667V8.66699H2V13.667ZM15 11.667C15.5523 11.667 16 12.1147 16 12.667C15.9998 13.2191 15.5522 13.667 15 13.667H12C11.4478 13.667 11.0002 13.2191 11 12.667C11 12.1147 11.4477 11.667 12 11.667H15ZM4 3.66699C2.89543 3.66699 2 4.56242 2 5.66699V6.66699H18V5.66699C18 4.56242 17.1046 3.66699 16 3.66699H4Z" fill="#17325E"/>
</svg>
